<svg width="107" height="16" viewBox="0 0 107 16" fill="none" xmlns="http://www.w3.org/2000/svg">
<path d="M4.86523 14.2109L7.69727 1.28125H9.38672L10.3047 2.38477L7.28711 15.5H5.42188L4.86523 14.2109ZM4.11328 1.28125L6.50586 14.3086L5.89062 15.5H3.73242L0.714844 1.28125H4.11328ZM11.8574 14.2402L14.2305 1.28125H17.6191L14.6016 15.5H12.4531L11.8574 14.2402ZM10.6074 1.28125L13.5078 14.2891L12.9219 15.5H11.0566L7.9707 2.36523L8.92773 1.28125H10.6074ZM22.2871 4.93359V15.5H18.9863V4.93359H22.2871ZM18.791 2.20898C18.791 1.74023 18.9603 1.35612 19.2988 1.05664C19.6374 0.757161 20.0768 0.607422 20.6172 0.607422C21.1576 0.607422 21.597 0.757161 21.9355 1.05664C22.2741 1.35612 22.4434 1.74023 22.4434 2.20898C22.4434 2.67773 22.2741 3.06185 21.9355 3.36133C21.597 3.66081 21.1576 3.81055 20.6172 3.81055C20.0768 3.81055 19.6374 3.66081 19.2988 3.36133C18.9603 3.06185 18.791 2.67773 18.791 2.20898ZM29.8555 12.5312C29.8555 12.349 29.7936 12.1927 29.6699 12.0625C29.5527 11.9258 29.3444 11.8021 29.0449 11.6914C28.7454 11.5742 28.3255 11.457 27.7852 11.3398C27.2708 11.2292 26.7858 11.0827 26.3301 10.9004C25.8809 10.7181 25.487 10.4967 25.1484 10.2363C24.8099 9.97591 24.543 9.66667 24.3477 9.30859C24.1589 8.95052 24.0645 8.54036 24.0645 8.07812C24.0645 7.62891 24.1589 7.20573 24.3477 6.80859C24.543 6.40495 24.8262 6.05013 25.1973 5.74414C25.5749 5.43164 26.0339 5.1875 26.5742 5.01172C27.1146 4.82943 27.7298 4.73828 28.4199 4.73828C29.3704 4.73828 30.1908 4.88477 30.8809 5.17773C31.571 5.46419 32.1016 5.86784 32.4727 6.38867C32.8503 6.90299 33.0391 7.4987 33.0391 8.17578H29.748C29.748 7.90885 29.7025 7.68099 29.6113 7.49219C29.5267 7.30339 29.3867 7.16016 29.1914 7.0625C28.9961 6.95833 28.7357 6.90625 28.4102 6.90625C28.1823 6.90625 27.974 6.94857 27.7852 7.0332C27.6029 7.11784 27.4564 7.23503 27.3457 7.38477C27.235 7.53451 27.1797 7.71029 27.1797 7.91211C27.1797 8.05534 27.2122 8.18555 27.2773 8.30273C27.349 8.41341 27.4564 8.51758 27.5996 8.61523C27.7428 8.70638 27.9251 8.79102 28.1465 8.86914C28.3678 8.94076 28.6348 9.00586 28.9473 9.06445C29.6569 9.19466 30.321 9.38021 30.9395 9.62109C31.5579 9.86198 32.0592 10.2038 32.4434 10.6465C32.834 11.0892 33.0293 11.6849 33.0293 12.4336C33.0293 12.9023 32.9219 13.3353 32.707 13.7324C32.4922 14.123 32.1829 14.4681 31.7793 14.7676C31.3757 15.0605 30.8906 15.2884 30.3242 15.4512C29.7578 15.6139 29.1198 15.6953 28.4102 15.6953C27.401 15.6953 26.5482 15.5163 25.8516 15.1582C25.1549 14.7936 24.6276 14.3379 24.2695 13.791C23.918 13.2376 23.7422 12.6777 23.7422 12.1113H26.8086C26.8216 12.4368 26.8997 12.7038 27.043 12.9121C27.1927 13.1204 27.3913 13.2734 27.6387 13.3711C27.8861 13.4688 28.1725 13.5176 28.498 13.5176C28.7975 13.5176 29.0449 13.4753 29.2402 13.3906C29.4421 13.306 29.5951 13.1921 29.6992 13.0488C29.8034 12.8991 29.8555 12.7266 29.8555 12.5312ZM39.6895 15.6953C38.8301 15.6953 38.0618 15.5618 37.3848 15.2949C36.7077 15.0215 36.1348 14.6471 35.666 14.1719C35.2038 13.6966 34.849 13.1497 34.6016 12.5312C34.3607 11.9128 34.2402 11.2585 34.2402 10.5684V10.1973C34.2402 9.42253 34.3477 8.70638 34.5625 8.04883C34.7773 7.38477 35.0964 6.80534 35.5195 6.31055C35.9427 5.81576 36.4733 5.43164 37.1113 5.1582C37.7493 4.87826 38.4915 4.73828 39.3379 4.73828C40.0866 4.73828 40.7572 4.85872 41.3496 5.09961C41.9421 5.34049 42.4434 5.68555 42.8535 6.13477C43.2702 6.58398 43.5859 7.1276 43.8008 7.76562C44.0221 8.40365 44.1328 9.11979 44.1328 9.91406V11.252H35.5V9.19141H40.9199V8.9375C40.9264 8.58594 40.8646 8.28646 40.7344 8.03906C40.6107 7.79167 40.4284 7.60286 40.1875 7.47266C39.9466 7.34245 39.6536 7.27734 39.3086 7.27734C38.9505 7.27734 38.6543 7.35547 38.4199 7.51172C38.1921 7.66797 38.013 7.88281 37.8828 8.15625C37.7591 8.42318 37.6712 8.73242 37.6191 9.08398C37.5671 9.43555 37.541 9.80664 37.541 10.1973V10.5684C37.541 10.959 37.5931 11.3138 37.6973 11.6328C37.8079 11.9518 37.9642 12.2253 38.166 12.4531C38.3743 12.6745 38.6217 12.847 38.9082 12.9707C39.2012 13.0944 39.5332 13.1562 39.9043 13.1562C40.3535 13.1562 40.7962 13.0716 41.2324 12.9023C41.6686 12.7331 42.043 12.4531 42.3555 12.0625L43.8496 13.8398C43.6348 14.1458 43.3288 14.4421 42.9316 14.7285C42.541 15.015 42.0723 15.2493 41.5254 15.4316C40.9785 15.6074 40.3665 15.6953 39.6895 15.6953ZM53.8887 14.2109L56.7207 1.28125H58.4102L59.3281 2.38477L56.3105 15.5H54.4453L53.8887 14.2109ZM53.1367 1.28125L55.5293 14.3086L54.9141 15.5H52.7559L49.7383 1.28125H53.1367ZM60.8809 14.2402L63.2539 1.28125H66.6426L63.625 15.5H61.4766L60.8809 14.2402ZM59.6309 1.28125L62.5312 14.2891L61.9453 15.5H60.0801L56.9941 2.36523L57.9512 1.28125H59.6309ZM67.1113 10.3242V10.1191C67.1113 9.3444 67.222 8.63151 67.4434 7.98047C67.6647 7.32292 67.9902 6.75326 68.4199 6.27148C68.8496 5.78971 69.3802 5.41536 70.0117 5.14844C70.6432 4.875 71.3724 4.73828 72.1992 4.73828C73.0326 4.73828 73.765 4.875 74.3965 5.14844C75.0345 5.41536 75.5684 5.78971 75.998 6.27148C76.4277 6.75326 76.7533 7.32292 76.9746 7.98047C77.196 8.63151 77.3066 9.3444 77.3066 10.1191V10.3242C77.3066 11.0924 77.196 11.8053 76.9746 12.4629C76.7533 13.1139 76.4277 13.6836 75.998 14.1719C75.5684 14.6536 75.0378 15.028 74.4062 15.2949C73.7747 15.5618 73.0456 15.6953 72.2188 15.6953C71.3919 15.6953 70.6595 15.5618 70.0215 15.2949C69.3835 15.028 68.8496 14.6536 68.4199 14.1719C67.9902 13.6836 67.6647 13.1139 67.4434 12.4629C67.222 11.8053 67.1113 11.0924 67.1113 10.3242ZM70.4023 10.1191V10.3242C70.4023 10.7214 70.4316 11.0924 70.4902 11.4375C70.5488 11.7826 70.6465 12.0853 70.7832 12.3457C70.9199 12.5996 71.1055 12.7982 71.3398 12.9414C71.5742 13.0846 71.8672 13.1562 72.2188 13.1562C72.5638 13.1562 72.8503 13.0846 73.0781 12.9414C73.3125 12.7982 73.498 12.5996 73.6348 12.3457C73.7715 12.0853 73.8691 11.7826 73.9277 11.4375C73.9863 11.0924 74.0156 10.7214 74.0156 10.3242V10.1191C74.0156 9.73503 73.9863 9.3737 73.9277 9.03516C73.8691 8.6901 73.7715 8.38737 73.6348 8.12695C73.498 7.86003 73.3125 7.65169 73.0781 7.50195C72.8438 7.35221 72.5508 7.27734 72.1992 7.27734C71.8542 7.27734 71.5645 7.35221 71.3301 7.50195C71.1022 7.65169 70.9199 7.86003 70.7832 8.12695C70.6465 8.38737 70.5488 8.6901 70.4902 9.03516C70.4316 9.3737 70.4023 9.73503 70.4023 10.1191ZM82.0918 7.55078V15.5H78.8008V4.93359H81.877L82.0918 7.55078ZM85.2168 4.85547L85.1582 7.91211C85.028 7.89909 84.8522 7.88281 84.6309 7.86328C84.4095 7.84375 84.224 7.83398 84.0742 7.83398C83.6901 7.83398 83.3581 7.87956 83.0781 7.9707C82.8047 8.05534 82.5768 8.18555 82.3945 8.36133C82.2188 8.5306 82.0885 8.74544 82.0039 9.00586C81.9258 9.26628 81.89 9.56901 81.8965 9.91406L81.3008 9.52344C81.3008 8.8138 81.3691 8.16927 81.5059 7.58984C81.6491 7.00391 81.8509 6.49935 82.1113 6.07617C82.3717 5.64648 82.6875 5.31771 83.0586 5.08984C83.4297 4.85547 83.8464 4.73828 84.3086 4.73828C84.4714 4.73828 84.6309 4.74805 84.7871 4.76758C84.9499 4.78711 85.0931 4.81641 85.2168 4.85547ZM92.2285 13.0781V0.5H95.5391V15.5H92.5703L92.2285 13.0781ZM85.7441 10.3438V10.1387C85.7441 9.33789 85.832 8.60872 86.0078 7.95117C86.1836 7.28711 86.444 6.71745 86.7891 6.24219C87.1341 5.76042 87.5638 5.38932 88.0781 5.12891C88.5924 4.86849 89.1849 4.73828 89.8555 4.73828C90.4544 4.73828 90.9785 4.87826 91.4277 5.1582C91.877 5.43164 92.2611 5.81576 92.5801 6.31055C92.8991 6.80534 93.1595 7.38477 93.3613 8.04883C93.5632 8.70638 93.7161 9.41602 93.8203 10.1777V10.4219C93.7161 11.138 93.5632 11.8151 93.3613 12.4531C93.1595 13.0846 92.8991 13.6445 92.5801 14.1328C92.2611 14.6211 91.8737 15.0052 91.418 15.2852C90.9688 15.5586 90.4414 15.6953 89.8359 15.6953C89.1654 15.6953 88.5729 15.5618 88.0586 15.2949C87.5508 15.028 87.1243 14.6536 86.7793 14.1719C86.4408 13.6901 86.1836 13.1237 86.0078 12.4727C85.832 11.8216 85.7441 11.112 85.7441 10.3438ZM89.0352 10.1387V10.3438C89.0352 10.7409 89.0612 11.1087 89.1133 11.4473C89.1654 11.7858 89.2533 12.0853 89.377 12.3457C89.5072 12.5996 89.6764 12.7982 89.8848 12.9414C90.0996 13.0846 90.3633 13.1562 90.6758 13.1562C91.099 13.1562 91.4473 13.0553 91.7207 12.8535C92.0007 12.6517 92.2057 12.3652 92.3359 11.9941C92.4727 11.623 92.5312 11.1868 92.5117 10.6855V9.91406C92.5247 9.48438 92.4954 9.10677 92.4238 8.78125C92.3522 8.44922 92.2383 8.17253 92.082 7.95117C91.9323 7.72982 91.7402 7.5638 91.5059 7.45312C91.278 7.33594 91.0078 7.27734 90.6953 7.27734C90.3893 7.27734 90.1289 7.34896 89.9141 7.49219C89.7057 7.63542 89.5365 7.83724 89.4062 8.09766C89.276 8.35156 89.1816 8.6543 89.123 9.00586C89.0645 9.35091 89.0352 9.72852 89.0352 10.1387ZM102.941 12.5312C102.941 12.349 102.88 12.1927 102.756 12.0625C102.639 11.9258 102.43 11.8021 102.131 11.6914C101.831 11.5742 101.411 11.457 100.871 11.3398C100.357 11.2292 99.8717 11.0827 99.416 10.9004C98.9668 10.7181 98.5729 10.4967 98.2344 10.2363C97.8958 9.97591 97.6289 9.66667 97.4336 9.30859C97.2448 8.95052 97.1504 8.54036 97.1504 8.07812C97.1504 7.62891 97.2448 7.20573 97.4336 6.80859C97.6289 6.40495 97.9121 6.05013 98.2832 5.74414C98.6608 5.43164 99.1198 5.1875 99.6602 5.01172C100.201 4.82943 100.816 4.73828 101.506 4.73828C102.456 4.73828 103.277 4.88477 103.967 5.17773C104.657 5.46419 105.188 5.86784 105.559 6.38867C105.936 6.90299 106.125 7.4987 106.125 8.17578H102.834C102.834 7.90885 102.788 7.68099 102.697 7.49219C102.613 7.30339 102.473 7.16016 102.277 7.0625C102.082 6.95833 101.822 6.90625 101.496 6.90625C101.268 6.90625 101.06 6.94857 100.871 7.0332C100.689 7.11784 100.542 7.23503 100.432 7.38477C100.321 7.53451 100.266 7.71029 100.266 7.91211C100.266 8.05534 100.298 8.18555 100.363 8.30273C100.435 8.41341 100.542 8.51758 100.686 8.61523C100.829 8.70638 101.011 8.79102 101.232 8.86914C101.454 8.94076 101.721 9.00586 102.033 9.06445C102.743 9.19466 103.407 9.38021 104.025 9.62109C104.644 9.86198 105.145 10.2038 105.529 10.6465C105.92 11.0892 106.115 11.6849 106.115 12.4336C106.115 12.9023 106.008 13.3353 105.793 13.7324C105.578 14.123 105.269 14.4681 104.865 14.7676C104.462 15.0605 103.977 15.2884 103.41 15.4512C102.844 15.6139 102.206 15.6953 101.496 15.6953C100.487 15.6953 99.6341 15.5163 98.9375 15.1582C98.2409 14.7936 97.7135 14.3379 97.3555 13.791C97.0039 13.2376 96.8281 12.6777 96.8281 12.1113H99.8945C99.9076 12.4368 99.9857 12.7038 100.129 12.9121C100.279 13.1204 100.477 13.2734 100.725 13.3711C100.972 13.4688 101.258 13.5176 101.584 13.5176C101.883 13.5176 102.131 13.4753 102.326 13.3906C102.528 13.306 102.681 13.1921 102.785 13.0488C102.889 12.8991 102.941 12.7266 102.941 12.5312Z" fill="#1F2937"/>
</svg>
